<svg width="896" height="896" viewBox="0 0 896 896" fill="none" xmlns="http://www.w3.org/2000/svg">
<g clip-path="url(#clip0_1842_1294)">
<g clip-path="url(#clip1_1842_1294)">
<path d="M130.521 684.328C219.342 595.268 307.877 506.494 396.693 417.439C325.41 417.439 254.377 417.439 182.924 417.439C182.924 374.178 182.924 331.228 182.924 287.715C184.685 287.715 186.527 287.715 188.368 287.715C285.813 287.715 383.258 287.67 480.703 287.735C526.196 287.765 563.066 305.472 590.011 342.431C605.822 364.117 613.805 388.752 613.857 415.552C614.051 515.857 613.934 616.162 613.928 716.468C613.928 717.206 613.85 717.944 613.789 719.005C570.836 719.005 528.031 719.005 484.565 719.005C484.565 647.849 484.565 576.528 484.565 503.884C482.108 506.216 480.62 507.564 479.201 508.982C410.431 577.749 341.649 646.504 272.966 715.359C270.032 718.3 267.157 719.439 263.028 719.428C209.443 719.292 155.858 719.338 102.272 719.338C100.384 719.338 98.4954 719.338 95.7051 719.338C107.602 707.375 118.918 695.994 130.521 684.328Z" fill="black"/>
<path d="M712.167 282.92C677.222 313.611 661.917 353.477 656.386 398.523C653.644 384.972 652.021 371.877 648.196 359.46C644.307 346.832 639.455 334.165 632.8 322.821C626.14 311.468 617.687 300.745 608.254 291.56C598.961 282.512 588.051 274.688 576.751 268.261C565.289 261.741 552.783 256.627 540.179 252.665C527.616 248.716 514.364 246.96 501.115 244.18C507.656 243.277 514.174 242.578 520.618 241.458C591.635 229.109 634.281 186.601 651.556 117.56C654.246 106.812 655.305 95.657 656.936 85.7937C664.348 180.673 718.678 231.275 811.795 244.82C775.054 248.074 741.109 258.463 712.167 282.92Z" fill="#B784ED"/>
</g>
</g>
<defs>
<clipPath id="clip0_1842_1294">
<rect width="896" height="896" fill="white"/>
</clipPath>
<clipPath id="clip1_1842_1294">
<rect width="956.701" height="967" fill="white" transform="translate(-30.3496 -35)"/>
</clipPath>
</defs>
</svg>
